# xmcd
#
# Track frame offsets:
#   150
#   20143
#   39615
#   61259
#   83684
#   114667
#   136828
#   157309
#   176157
#   197699
#   221327
#   237315
#
# Disc length: 3478 seconds
#
# Revision: 0
# Processed by: cddbd v1.5.2PL0 Copyright (c) Steve Scherf et al.
# Submitted via: uFREEDB ActiveX Control 1.5
#
DISCID=a90d940c
DTITLE=RAYSSA and RAVEL - COMO VOCÊ NUNCA VIU
DYEAR=2008
DGENRE=Gospel and Religious
TTITLE0=INTIMIDADE
TTITLE1=VOU AO TEU ENCONTRO
TTITLE2=CONSOLADOR
TTITLE3=SOMENTE TEU
TTITLE4=A HONRA
TTITLE5=COMO VOCE NUNCA VIU
TTITLE6=DE JOELHOS
TTITLE7=VOU CLAMAR
TTITLE8=SACRIFICIO
TTITLE9=LEVA-ME
TTITLE10=SO O SENHOR E DEUS
TTITLE11=O TOQUE DO SENHOR
EXTD=
EXTT0=
EXTT1=
EXTT2=
EXTT3=
EXTT4=
EXTT5=
EXTT6=
EXTT7=
EXTT8=
EXTT9=
EXTT10=
EXTT11=
PLAYORDER=
